<svg version="1.1" id="Layer_1" xmlns="http://www.w3.org/2000/svg" xmlns:xlink="http://www.w3.org/1999/xlink" x="0px" y="0px"
	 width="100%" viewBox="0 0 293 324" enable-background="new 0 0 293 324" xml:space="preserve">
<path fill="#FEFEFE" opacity="1.000000" stroke="none" 
	d="
M154.000000,325.000000 
	C102.666695,325.000000 51.833382,325.000000 1.000055,325.000000 
	C1.000036,217.000076 1.000036,109.000153 1.000018,1.000170 
	C98.666542,1.000114 196.333084,1.000114 293.999725,1.000057 
	C293.999817,108.999825 293.999817,216.999649 293.999908,324.999756 
	C247.500000,325.000000 201.000000,325.000000 154.000000,325.000000 
M229.714584,213.663239 
	C229.714584,213.663239 229.740936,213.624771 229.415207,212.915939 
	C228.506927,206.948105 224.036972,203.488434 218.466400,204.197769 
	C215.883240,204.526672 213.137985,204.005341 210.669312,204.648758 
	C209.234589,205.022690 207.222626,206.890793 207.156647,208.173309 
	C206.850647,214.120529 206.959167,220.109589 207.348465,226.055573 
	C207.431137,227.318329 209.308151,228.463608 210.358475,229.663010 
	C211.443619,228.505325 213.275620,227.457260 213.464859,226.168045 
	C213.916962,223.087997 213.518082,219.892181 213.606445,216.747131 
	C213.699173,213.446365 214.199493,210.193207 218.437134,209.919235 
	C222.583176,209.651184 223.685684,212.600037 224.058884,216.872940 
	C224.131943,220.244263 224.205002,223.615601 224.223907,227.722153 
	C225.435608,228.441360 226.598587,229.541855 227.881241,229.705811 
	C228.452667,229.778839 229.265106,227.966202 230.033218,226.109879 
	C230.019135,223.405090 230.005051,220.700317 230.373245,217.526428 
	C230.163055,216.250183 229.952866,214.973953 229.714584,213.663239 
M104.345894,90.344879 
	C104.345894,90.344879 104.287399,90.827339 103.722733,91.082085 
	C99.757751,95.048920 95.259735,98.617157 91.935173,103.062897 
	C84.257324,113.330040 87.576797,125.666649 99.105537,131.233353 
	C101.619293,132.447144 104.351425,133.208694 106.996101,134.978409 
	C106.991196,136.575150 106.986282,138.171875 106.410934,140.165588 
	C105.599854,142.266678 103.787575,144.650467 104.277138,146.384308 
	C104.711639,147.923141 107.609566,149.487961 109.581642,149.731094 
	C114.775551,150.371490 117.448555,146.484253 115.927490,140.551132 
	C116.301544,138.867218 116.675591,137.183304 117.838501,135.405594 
	C121.939285,135.923538 126.040070,136.441483 130.661133,137.387650 
	C134.100845,139.399612 137.540543,141.411560 141.343033,144.033646 
	C143.168762,146.058975 144.994507,148.084305 147.116257,150.685883 
	C147.801010,151.775497 148.485748,152.865112 149.180130,154.471863 
	C149.415222,154.698471 149.650314,154.925064 149.906631,155.059036 
	C149.906631,155.059036 149.817078,155.090805 149.824905,155.837173 
	C153.504303,160.991089 156.337402,167.166656 161.051407,171.071579 
	C169.143051,177.774414 179.749207,174.774155 184.109177,165.173599 
	C186.109222,160.769547 186.644241,155.700180 188.048355,150.604385 
	C188.048355,150.604385 188.101562,150.221268 188.676712,149.850906 
	C192.795151,144.423798 199.230743,143.425125 205.053452,141.201859 
	C214.258499,137.687134 218.521194,130.505844 215.393127,122.235275 
	C213.697617,117.752373 210.143509,113.972427 207.815781,109.276619 
	C210.597946,105.621269 213.612823,102.117943 216.118652,98.282082 
	C223.644119,86.762352 217.643143,73.450172 207.563110,70.338776 
	C201.709595,69.217300 195.856094,68.095833 189.465469,66.657906 
	C188.646988,66.591850 187.828506,66.525787 186.371765,66.191734 
	C185.912872,66.174660 185.453964,66.157585 184.310135,65.849876 
	C177.904724,62.515129 171.499298,59.180382 164.841278,55.205189 
	C161.542053,50.198429 158.242844,45.191669 154.653091,39.561420 
	C150.680954,35.606014 145.941360,33.620502 140.301773,34.130871 
	C130.775818,34.992958 122.908035,45.478699 125.640770,53.577568 
	C125.079773,54.381248 124.518776,55.184929 123.289062,56.222969 
	C121.553650,57.353485 119.932869,58.759918 118.052361,59.541153 
	C115.942261,60.417755 113.538979,60.560963 111.364807,61.315777 
	C102.164856,64.509750 99.256142,70.839874 102.567322,79.950966 
	C103.523499,82.581985 104.186272,85.319641 104.749695,88.653389 
	C104.733543,89.106712 104.717392,89.560043 104.345894,90.344879 
M261.265686,216.139267 
	C259.082794,210.861511 257.189697,205.433182 254.566025,200.384491 
	C253.596237,198.518341 250.907562,197.545471 248.270401,196.024139 
	C246.888824,197.257080 244.912766,198.228241 244.233627,199.770508 
	C241.900482,205.068802 240.021408,210.567032 237.514420,216.513443 
	C236.482681,218.936142 235.187439,221.287827 234.508713,223.805695 
	C234.029236,225.584381 233.697113,228.832108 234.490402,229.270996 
	C237.521576,230.948029 239.056854,228.549759 240.465454,226.049057 
	C241.275269,224.611389 242.807693,223.580780 244.656189,222.619873 
	C245.107025,222.573074 245.557846,222.526260 246.697571,222.686005 
	C247.170700,222.633545 247.643845,222.581085 248.970642,222.755814 
	C253.569885,222.708481 258.444183,221.876190 260.062531,228.259338 
	C260.246735,228.985947 263.152740,229.022491 264.796661,229.379013 
	C265.005157,228.073730 265.709686,226.595505 265.326508,225.496506 
	C264.294495,222.536530 262.798462,219.738312 261.265686,216.139267 
M163.776230,230.084625 
	C166.323212,229.064224 169.191055,228.489960 171.353455,226.934799 
	C176.591324,223.167877 177.683212,215.399841 173.992416,210.308060 
	C173.346298,208.266571 172.700180,206.225098 172.012024,204.084702 
	C172.012024,204.084702 172.114105,204.051147 172.560211,204.013596 
	C172.723465,203.681259 172.886734,203.348923 173.126114,202.223206 
	C170.834198,200.388779 168.810349,197.855453 166.199005,196.853775 
	C158.987106,194.087372 152.208847,196.455627 148.001373,202.497269 
	C143.478531,208.991837 143.813232,217.679199 149.073395,224.721130 
	C152.791016,228.917496 157.376419,230.820923 163.776230,230.084625 
M99.893204,223.590179 
	C99.623558,222.269058 99.353912,220.947922 99.688721,219.327408 
	C100.120743,219.202667 100.552773,219.077927 101.312553,219.431244 
	C102.218277,219.284714 103.124001,219.138199 104.257751,219.728119 
	C104.296043,220.495193 104.334335,221.262268 104.106392,222.506104 
	C104.410164,222.649567 104.713928,222.793030 105.328049,223.571075 
	C107.543411,225.417404 109.758774,227.263733 112.570175,229.652115 
	C116.360649,229.484222 120.177399,228.967392 123.933914,229.250320 
	C127.425888,229.513321 128.807846,228.321777 128.863037,224.067596 
	C128.909668,215.770874 129.118759,207.469193 128.866165,199.181595 
	C128.815491,197.519302 127.179939,194.681992 125.977386,194.513657 
	C122.718666,194.057541 122.760544,196.954956 122.768143,199.343918 
	C122.775131,201.538666 122.769630,203.733429 122.769630,206.544373 
	C116.744507,203.417755 111.974770,203.065033 107.237801,208.061890 
	C106.415108,210.032990 105.592415,212.004105 104.371872,214.547501 
	C104.249306,215.698746 104.126740,216.849976 103.535011,217.845093 
	C102.956696,217.536606 102.378372,217.228134 101.579239,216.125687 
	C100.016220,207.592941 95.130249,203.289001 87.992493,204.157425 
	C81.085556,204.997757 76.917496,210.853210 77.389572,219.825684 
	C78.599327,225.995850 83.030563,229.004715 88.487053,230.777496 
	C93.841591,232.517151 98.741150,229.595306 99.893204,223.590179 
M194.767944,230.081146 
	C196.584381,229.365402 198.567001,228.896027 200.147217,227.830109 
	C200.938675,227.296249 200.996536,225.674820 201.386200,224.545288 
	C200.117737,224.194153 198.792633,223.425049 197.593750,223.587494 
	C195.679230,223.846893 193.848587,224.725327 191.273483,225.101044 
	C189.438492,223.733521 187.603485,222.365997 185.768494,220.998474 
	C186.054077,220.498505 186.339645,219.998535 186.625229,219.498566 
	C190.101486,219.498566 193.578491,219.545074 197.053848,219.488708 
	C203.886719,219.377899 205.421143,217.031342 201.972977,211.056168 
	C200.576569,208.636398 198.166870,206.389801 195.680878,205.101059 
	C191.295547,202.827698 185.954361,204.434067 182.593231,208.212723 
	C178.965805,212.290802 178.239914,218.637054 180.835068,223.583725 
	C183.492401,228.648895 187.747269,230.720520 194.767944,230.081146 
M146.707031,171.879456 
	C147.492767,170.421204 149.329041,168.404266 148.897720,167.593216 
	C145.503525,161.210617 142.282227,154.568054 137.778214,149.000061 
	C134.527451,144.981354 129.424713,147.004028 127.873505,152.056488 
	C125.004486,161.401215 134.516785,174.979279 145.466034,172.513275 
	C145.723053,172.426468 145.889420,172.252670 146.707031,171.879456 
M45.183681,211.743927 
	C46.633713,215.636230 47.824245,219.654480 49.629585,223.374329 
	C50.740242,225.662827 52.482948,228.784836 54.483219,229.261673 
	C58.527641,230.225800 58.610123,225.767151 59.718899,223.273422 
	C61.827915,218.530136 63.512123,213.597977 65.372742,208.744247 
	C65.816978,208.830322 66.261223,208.916382 66.705460,209.002441 
	C66.705460,214.230103 66.692902,219.457794 66.711273,224.685379 
	C66.719284,226.964401 66.162910,229.632645 69.779816,229.722687 
	C73.258926,229.809280 73.231743,227.374435 73.216263,224.935715 
	C73.167648,217.274826 73.199715,209.612579 73.061646,201.953369 
	C72.969498,196.841904 70.531319,194.805679 65.747566,196.340317 
	C64.113762,196.864426 62.585903,199.037430 61.851646,200.806534 
	C59.375103,206.773499 57.276901,212.897507 54.742382,219.749924 
	C53.162922,216.168045 52.030201,213.599289 50.862244,210.286392 
	C49.344059,206.602051 47.864300,202.901260 46.296177,199.238297 
	C44.908989,195.997986 41.950943,195.190628 39.268745,196.420639 
	C37.717129,197.132202 36.271584,199.820801 36.187683,201.683121 
	C35.835724,209.495483 35.863560,217.336884 36.123966,225.155273 
	C36.178955,226.806213 37.673035,229.679474 38.722496,229.783386 
	C41.603817,230.068710 42.175785,227.725250 42.095013,225.051620 
	C41.924992,219.423828 42.043339,213.787323 42.043339,208.154404 
	C42.524170,208.138748 43.005001,208.123093 43.485832,208.107452 
	C44.044052,209.071381 44.602268,210.035324 45.183681,211.743927 
M160.142303,275.734711 
	C160.791351,276.145508 161.442200,276.914734 162.089188,276.911499 
	C168.276291,276.880646 174.466675,276.818054 180.648575,276.573853 
	C192.236542,276.116150 203.903458,276.215240 215.380692,274.805634 
	C226.626083,273.424469 237.701065,270.563293 248.783890,268.055786 
	C250.343231,267.703033 251.522003,265.668213 252.876923,264.411957 
	C251.357452,263.024170 250.005142,260.701416 248.292313,260.395203 
	C233.357834,257.725189 218.402710,255.072830 203.359665,253.151413 
	C196.313995,252.251480 189.059357,253.079681 181.903580,252.927963 
	C171.436356,252.706039 160.965439,251.884720 150.509293,252.068512 
	C126.001816,252.499298 101.431862,252.229584 77.113167,256.052643 
	C71.100807,256.997803 65.109283,258.317719 59.275108,260.033142 
	C56.988426,260.705505 55.160271,262.937317 53.123291,264.458923 
	C55.350864,265.907379 57.395081,268.044128 59.835327,268.694214 
	C77.649223,273.439453 95.874306,275.361877 114.259941,276.009674 
	C122.006500,276.282623 129.756104,277.020966 137.491898,276.877686 
	C144.004196,276.757050 150.498535,275.666046 157.750595,275.001251 
	C158.500397,275.000824 159.250198,275.000397 160.142303,275.734711 
M169.305634,29.962629 
	C163.399277,30.631021 160.872940,33.679150 163.071976,38.860390 
	C164.962662,43.315083 167.888412,47.449921 170.982956,51.210712 
	C172.095917,52.563316 175.431091,53.358047 177.032471,52.687847 
	C178.700104,51.989925 180.200302,49.338528 180.550903,47.328018 
	C181.775833,40.303993 176.994202,32.773869 169.305634,29.962629 
M275.036102,227.840149 
	C275.076752,218.884979 275.272919,209.925339 275.015350,200.978745 
	C274.968719,199.359528 273.277100,196.683487 271.968170,196.428375 
	C268.995758,195.849030 268.911926,198.534515 268.917084,200.801132 
	C268.935608,208.929825 268.870483,217.058914 268.929932,225.187180 
	C268.963928,229.837997 269.927216,230.362122 275.036102,227.840149 
M91.430801,80.908638 
	C86.358711,81.136742 83.354149,84.334991 82.463722,88.745430 
	C82.031433,90.886620 83.379311,94.398903 85.117645,95.741737 
	C88.111504,98.054420 93.936630,94.538582 96.058968,89.795586 
	C98.003029,85.451012 96.982933,83.098267 91.430801,80.908638 
M133.967987,208.094284 
	C133.957962,213.913696 133.989517,219.733627 133.916824,225.552261 
	C133.888992,227.780426 134.164200,229.491837 136.984177,229.576981 
	C139.805389,229.662140 140.221436,228.036987 140.215256,225.759247 
	C140.199936,220.106705 140.452026,214.447021 140.219193,208.805801 
	C140.158066,207.324539 138.720474,205.900085 137.915009,204.449524 
	C136.611481,205.379150 135.307953,206.308777 133.967987,208.094284 
M192.724640,53.168335 
	C189.279617,57.265617 189.239716,59.550732 192.778687,61.663342 
	C196.229904,63.723591 200.063080,63.997429 202.836411,61.025551 
	C204.118103,59.652092 204.686432,56.113110 203.813065,54.529285 
	C201.766068,50.817142 198.014404,50.642460 194.249420,52.307087 
	C193.947739,52.440472 193.670364,52.628849 192.724640,53.168335 
M228.515381,107.896393 
	C230.481949,104.802849 230.630585,101.752083 227.200546,99.809082 
	C223.947784,97.966515 220.644836,99.216614 219.224594,102.348053 
	C218.160690,104.693817 217.541794,108.522110 218.754303,110.326492 
	C220.686356,113.201653 224.082245,111.659882 226.681366,109.896057 
	C227.214951,109.533943 227.613998,108.973587 228.515381,107.896393 
M118.820541,46.984047 
	C118.754265,45.354271 119.007004,43.629944 118.557625,42.113712 
	C117.508362,38.573471 113.758133,36.787766 111.307945,38.927559 
	C109.680733,40.348637 108.073311,43.151592 108.361244,45.046669 
	C108.687675,47.195103 110.794525,49.874557 112.791275,50.682816 
	C114.098701,51.212044 116.584961,48.829048 118.820541,46.984047 
M141.092926,197.455276 
	C139.675064,196.194290 138.420486,194.467941 136.764069,193.886734 
	C136.036285,193.631363 133.544357,195.706863 133.542313,196.727432 
	C133.539429,198.170074 135.214081,200.874374 135.971832,200.806564 
	C137.719803,200.650131 139.347412,199.148865 141.092926,197.455276 
M205.266022,149.039871 
	C201.102142,149.796143 201.648804,152.835220 202.642685,155.442719 
	C202.904495,156.129593 206.130402,156.649658 206.971527,155.973312 
	C209.560120,153.891769 209.069031,151.440369 206.443253,149.454697 
	C206.313202,149.356369 206.157410,149.292053 205.266022,149.039871 
M150.405334,27.373764 
	C151.625610,28.255896 152.910782,29.905525 154.048309,29.809311 
	C155.241287,29.708408 157.028931,28.035620 157.192825,26.859735 
	C157.347855,25.747396 155.733124,24.388393 154.896774,23.137871 
	C153.396301,24.308096 151.895813,25.478323 150.405334,27.373764 
z"/>
<path fill="#F7F7F7" opacity="1.000000" stroke="none" 
	d="
M157.000824,275.004608 
	C150.498535,275.666046 144.004196,276.757050 137.491898,276.877686 
	C129.756104,277.020966 122.006500,276.282623 114.259941,276.009674 
	C95.874306,275.361877 77.649223,273.439453 59.835327,268.694214 
	C57.395081,268.044128 55.350864,265.907379 53.123291,264.458923 
	C55.160271,262.937317 56.988426,260.705505 59.275108,260.033142 
	C65.109283,258.317719 71.100807,256.997803 77.113167,256.052643 
	C101.431862,252.229584 126.001816,252.499298 150.509293,252.068512 
	C160.965439,251.884720 171.436356,252.706039 181.903580,252.927963 
	C189.059357,253.079681 196.313995,252.251480 203.359665,253.151413 
	C218.402710,255.072830 233.357834,257.725189 248.292313,260.395203 
	C250.005142,260.701416 251.357452,263.024170 252.876923,264.411957 
	C251.522003,265.668213 250.343231,267.703033 248.783890,268.055786 
	C237.701065,270.563293 226.626083,273.424469 215.380692,274.805634 
	C203.903458,276.215240 192.236542,276.116150 180.648575,276.573853 
	C174.466675,276.818054 168.276291,276.880646 162.089188,276.911499 
	C161.442200,276.914734 160.791351,276.145508 160.365082,275.070251 
	C176.416595,273.603363 192.268982,273.101654 208.062973,271.858154 
	C214.863525,271.322754 221.581314,269.404541 228.246658,267.751343 
	C229.649994,267.403290 230.658966,265.465149 231.849670,264.259674 
	C230.490814,263.194977 229.253662,261.444702 227.753113,261.178375 
	C218.865143,259.600800 209.916092,258.367432 200.572235,257.014771 
	C198.771118,257.012268 197.385376,257.013336 195.714569,256.717896 
	C191.620483,256.610504 187.811432,256.799591 183.670120,256.989441 
	C182.894836,256.990204 182.451828,256.990234 181.956329,256.657593 
	C180.932144,256.545685 179.960449,256.766479 178.574036,256.987976 
	C176.778366,256.986359 175.397415,256.984009 173.919876,256.586914 
	C170.033981,255.794144 166.242706,255.055496 162.455795,255.077164 
	C156.635620,255.110428 150.818451,255.666031 144.584290,256.011108 
	C134.447983,256.351288 124.727386,256.680328 114.591675,257.004089 
	C106.765968,257.011780 99.293480,256.444946 91.965065,257.227478 
	C86.445282,257.816864 81.041031,259.933716 75.717552,261.756683 
	C72.276772,262.934937 72.095535,265.206390 75.436577,266.838654 
	C78.219933,268.198456 81.243477,269.622437 84.254799,269.869263 
	C103.225929,271.424347 122.222824,272.666199 141.212448,273.993805 
	C146.473083,274.361633 151.737915,274.669342 157.000824,275.004608 
z"/>
<path fill="#ECEDEE" opacity="1.000000" stroke="none" 
	d="
M157.375702,275.002930 
	C151.737915,274.669342 146.473083,274.361633 141.212448,273.993805 
	C122.222824,272.666199 103.225929,271.424347 84.254799,269.869263 
	C81.243477,269.622437 78.219933,268.198456 75.436577,266.838654 
	C72.095535,265.206390 72.276772,262.934937 75.717552,261.756683 
	C81.041031,259.933716 86.445282,257.816864 91.965065,257.227478 
	C99.293480,256.444946 106.765968,257.011780 114.509079,257.382538 
	C113.857140,258.178741 112.908035,258.753906 111.882370,258.976837 
	C105.960800,260.263794 100.021149,261.467621 93.439339,262.834198 
	C98.029358,268.773407 110.235115,271.434418 117.335129,269.015381 
	C118.107208,269.013062 118.548431,269.014404 119.083374,269.407654 
	C123.272461,270.419586 127.362877,271.519623 131.464188,271.561859 
	C140.637421,271.656372 149.816071,271.223907 159.422211,271.005096 
	C161.567917,271.006500 163.283966,271.008850 165.293976,271.304779 
	C170.392319,271.393036 175.196655,271.187714 180.416473,270.984619 
	C182.215408,270.984344 183.598877,270.981781 185.446075,270.986145 
	C192.335800,270.646027 198.775665,270.454712 205.181824,269.884705 
	C208.276108,269.609344 211.408661,268.900543 214.322968,267.837311 
	C215.739761,267.320435 217.269119,265.683411 217.627045,264.269745 
	C217.818390,263.514038 215.805466,261.754761 214.470963,261.168213 
	C212.706757,260.392822 210.579727,260.492432 208.704208,259.908813 
	C206.085724,259.094025 203.555557,257.995453 200.987579,257.018311 
	C209.916092,258.367432 218.865143,259.600800 227.753113,261.178375 
	C229.253662,261.444702 230.490814,263.194977 231.849670,264.259674 
	C230.658966,265.465149 229.649994,267.403290 228.246658,267.751343 
	C221.581314,269.404541 214.863525,271.322754 208.062973,271.858154 
	C192.268982,273.101654 176.416595,273.603363 160.293945,274.702881 
	C159.250198,275.000397 158.500397,275.000824 157.375702,275.002930 
z"/>
<path fill="#1D7CC6" opacity="1.000000" stroke="none" 
	d="
M106.982979,134.178497 
	C104.351425,133.208694 101.619293,132.447144 99.105537,131.233353 
	C87.576797,125.666649 84.257324,113.330040 91.935173,103.062897 
	C95.259735,98.617157 99.757751,95.048920 104.363663,91.041931 
	C105.240654,91.065651 105.476723,91.129509 105.791481,91.530190 
	C105.955681,92.556641 106.041191,93.246277 106.101624,94.362320 
	C107.078697,102.187225 108.080864,109.585701 109.200821,117.303680 
	C111.565315,121.077324 113.812012,124.531464 115.694397,128.023651 
	C112.350899,129.062012 109.707611,130.354630 109.615471,134.221649 
	C108.486618,134.224777 107.734802,134.201645 106.982979,134.178497 
z"/>
<path fill="#C2DF33" opacity="1.000000" stroke="none" 
	d="
M207.427795,109.875381 
	C210.143509,113.972427 213.697617,117.752373 215.393127,122.235275 
	C218.521194,130.505844 214.258499,137.687134 205.053452,141.201859 
	C199.230743,143.425125 192.795151,144.423798 188.358948,149.583435 
	C188.692078,143.718109 189.342972,138.120239 190.382614,132.345139 
	C191.137909,129.201645 191.504440,126.235390 192.215546,123.160400 
	C196.245346,119.683807 199.969116,116.356583 203.590744,112.921654 
	C204.587051,111.976677 205.278198,110.709930 206.332291,109.633026 
	C206.837326,109.780075 207.128189,109.846794 207.427795,109.875381 
z"/>
<path fill="#1B2A4F" opacity="1.000000" stroke="none" 
	d="
M50.897476,211.030518 
	C52.030201,213.599289 53.162922,216.168045 54.742382,219.749924 
	C57.276901,212.897507 59.375103,206.773499 61.851646,200.806534 
	C62.585903,199.037430 64.113762,196.864426 65.747566,196.340317 
	C70.531319,194.805679 72.969498,196.841904 73.061646,201.953369 
	C73.199715,209.612579 73.167648,217.274826 73.216263,224.935715 
	C73.231743,227.374435 73.258926,229.809280 69.779816,229.722687 
	C66.162910,229.632645 66.719284,226.964401 66.711273,224.685379 
	C66.692902,219.457794 66.705460,214.230103 66.705460,209.002441 
	C66.261223,208.916382 65.816978,208.830322 65.372742,208.744247 
	C63.512123,213.597977 61.827915,218.530136 59.718899,223.273422 
	C58.610123,225.767151 58.527641,230.225800 54.483219,229.261673 
	C52.482948,228.784836 50.740242,225.662827 49.629585,223.374329 
	C47.824245,219.654480 46.633713,215.636230 45.502480,211.410675 
	C47.513340,211.061798 49.205410,211.046158 50.897476,211.030518 
z"/>
<path fill="#94CC2C" opacity="1.000000" stroke="none" 
	d="
M189.993866,132.522385 
	C189.342972,138.120239 188.692078,143.718109 188.071381,149.768616 
	C188.101562,150.221268 188.048355,150.604385 187.618927,150.841370 
	C185.988235,152.620163 184.754654,154.138016 183.590881,155.707657 
	C175.139191,167.107025 162.101883,167.663803 153.364777,156.961243 
	C160.043991,153.649536 166.438049,150.524902 172.594376,146.986649 
	C173.854904,146.262192 174.224548,143.987686 175.386932,142.345047 
	C177.902588,142.149963 180.036163,142.037506 182.563766,141.904282 
	C182.770767,138.752975 182.960098,135.870453 183.180023,132.522385 
	C185.703400,132.522385 187.848633,132.522385 189.993866,132.522385 
z"/>
<path fill="#8DCA2F" opacity="1.000000" stroke="none" 
	d="
M175.004852,142.427673 
	C174.224548,143.987686 173.854904,146.262192 172.594376,146.986649 
	C166.438049,150.524902 160.043991,153.649536 153.082764,156.827850 
	C151.560043,156.187088 150.688568,155.638947 149.817078,155.090805 
	C149.817078,155.090805 149.906631,155.059036 149.877258,154.856644 
	C149.718369,154.327835 149.492584,154.094666 149.170502,153.954727 
	C148.485748,152.865112 147.801010,151.775497 147.042175,149.959015 
	C146.957062,147.165253 146.946045,145.098328 147.236511,142.759491 
	C147.833221,139.821167 148.128448,137.154755 148.464981,134.115295 
	C154.318192,135.963440 159.670013,136.529099 164.518433,131.936157 
	C167.522202,132.252502 170.097061,132.464432 171.931061,132.615372 
	C173.077301,136.274429 174.041077,139.351059 175.004852,142.427673 
z"/>
<path fill="#093593" opacity="1.000000" stroke="none" 
	d="
M123.957771,55.988609 
	C124.518776,55.184929 125.079773,54.381248 126.213623,53.301426 
	C128.165833,52.217438 129.703415,51.594227 130.897873,50.570629 
	C136.917145,45.412411 143.393646,43.105164 151.302307,47.063339 
	C152.706940,48.495392 153.829941,49.748344 154.655029,51.149551 
	C149.443146,58.772930 142.060516,62.907787 134.170181,66.465439 
	C130.206329,68.252693 127.267387,71.028389 127.642273,75.953659 
	C126.948212,74.333702 126.660866,72.744102 126.199463,71.206741 
	C125.963844,70.421669 125.416100,69.730278 125.006470,68.538956 
	C124.654938,64.050438 124.306351,60.019524 123.957771,55.988609 
z"/>
<path fill="#122285" opacity="1.000000" stroke="none" 
	d="
M123.623413,56.105789 
	C124.306351,60.019524 124.654938,64.050438 124.883972,68.821793 
	C124.179970,70.374245 123.595505,71.186241 122.644119,72.004242 
	C121.157997,73.056496 120.044113,74.108498 118.918709,75.148026 
	C114.275566,79.436882 109.628914,83.721939 104.983559,88.008408 
	C104.186272,85.319641 103.523499,82.581985 102.567322,79.950966 
	C99.256142,70.839874 102.164856,64.509750 111.364807,61.315777 
	C113.538979,60.560963 115.942261,60.417755 118.052361,59.541153 
	C119.932869,58.759918 121.553650,57.353485 123.623413,56.105789 
z"/>
<path fill="#56DCD4" opacity="1.000000" stroke="none" 
	d="
M207.621796,109.576004 
	C207.128189,109.846794 206.837326,109.780075 206.144989,109.397255 
	C204.312103,108.328117 202.889420,107.536942 201.350616,106.527054 
	C201.234467,106.308334 201.010956,105.866356 201.006958,105.434982 
	C200.634338,101.619820 200.265701,98.236038 199.897491,94.495850 
	C199.931534,93.427650 199.965164,92.715851 200.303223,91.861160 
	C208.255951,86.597023 210.893036,79.681145 208.092606,70.817955 
	C217.643143,73.450172 223.644119,86.762352 216.118652,98.282082 
	C213.612823,102.117943 210.597946,105.621269 207.621796,109.576004 
z"/>
<path fill="#43D7D1" opacity="1.000000" stroke="none" 
	d="
M145.107605,172.418915 
	C134.516785,174.979279 125.004486,161.401215 127.873505,152.056488 
	C129.424713,147.004028 134.527451,144.981354 137.778214,149.000061 
	C142.282227,154.568054 145.503525,161.210617 148.897720,167.593216 
	C149.329041,168.404266 147.492767,170.421204 146.174713,171.967972 
	C145.431351,172.128937 145.253082,172.249741 145.107605,172.418915 
z"/>
<path fill="#1A2A50" opacity="1.000000" stroke="none" 
	d="
M111.974129,229.110077 
	C109.758774,227.263733 107.543411,225.417404 105.115479,223.070221 
	C104.790390,222.326294 104.613632,222.146286 104.372635,222.029343 
	C104.334335,221.262268 104.296043,220.495193 104.227768,219.109955 
	C104.133247,218.328247 104.068703,218.164734 104.004166,218.001221 
	C104.126740,216.849976 104.249306,215.698746 104.971298,214.261810 
	C110.412857,213.377579 109.043495,210.509598 107.860260,207.709610 
	C111.974770,203.065033 116.744507,203.417755 122.769630,206.544373 
	C122.769630,203.733429 122.775131,201.538666 122.768143,199.343918 
	C122.760544,196.954956 122.718666,194.057541 125.977386,194.513657 
	C127.179939,194.681992 128.815491,197.519302 128.866165,199.181595 
	C129.118759,207.469193 128.909668,215.770874 128.428833,224.468857 
	C126.275078,223.475174 124.555511,222.080231 122.833755,220.279053 
	C122.870682,218.725098 123.039200,217.564392 122.925552,216.432007 
	C122.528427,212.475037 120.489731,209.858795 116.328766,209.967911 
	C112.325050,210.072876 110.430435,212.855286 110.718994,216.525528 
	C110.913048,218.993774 112.255043,221.371765 113.029625,224.177460 
	C112.641899,226.079865 112.308014,227.594971 111.974129,229.110077 
z"/>
<path fill="#1B74BE" opacity="1.000000" stroke="none" 
	d="
M146.935013,143.031418 
	C146.946045,145.098328 146.957062,147.165253 146.894165,149.670898 
	C144.994507,148.084305 143.168762,146.058975 141.564545,143.580811 
	C146.072281,140.758118 142.824875,138.446762 141.562729,136.378632 
	C139.665985,133.270645 136.778687,133.405823 133.840500,134.797623 
	C132.554489,135.406799 131.370941,136.232208 130.140854,136.959427 
	C126.040070,136.441483 121.939285,135.923538 117.059738,135.309235 
	C114.184822,134.873718 112.088661,134.534546 109.992500,134.195374 
	C109.707611,130.354630 112.350899,129.062012 116.059242,128.064758 
	C124.485382,132.536087 131.963562,132.309662 138.782898,126.466080 
	C142.406281,123.361168 145.496307,119.639091 148.895248,116.264267 
	C150.125275,115.042992 151.553986,114.021812 152.931824,113.274155 
	C152.961609,114.366119 152.951614,115.093254 152.824615,116.158127 
	C151.764038,118.920990 150.820450,121.346100 149.629074,124.056808 
	C148.305008,130.537933 144.203873,136.337524 146.935013,143.031418 
z"/>
<path fill="#26ADBD" opacity="1.000000" stroke="none" 
	d="
M194.001038,229.994019 
	C187.747269,230.720520 183.492401,228.648895 180.835068,223.583725 
	C178.239914,218.637054 178.965805,212.290802 182.593231,208.212723 
	C185.954361,204.434067 191.295547,202.827698 195.680878,205.101059 
	C198.166870,206.389801 200.576569,208.636398 201.972977,211.056168 
	C205.421143,217.031342 203.886719,219.377899 197.053848,219.488708 
	C193.578491,219.545074 190.101486,219.498566 186.625229,219.498566 
	C186.339645,219.998535 186.054077,220.498505 185.768494,220.998474 
	C187.603485,222.365997 189.438492,223.733521 191.681458,225.538406 
	C192.726639,227.315186 193.363831,228.654602 194.001038,229.994019 
M196.157410,211.612701 
	C190.958298,207.698257 187.602188,208.716614 186.201202,215.007401 
	C189.064468,215.007401 191.865829,215.199692 194.608185,214.882172 
	C195.363373,214.794739 195.942383,213.185562 196.157410,211.612701 
z"/>
<path fill="#F1FAFA" opacity="1.000000" stroke="none" 
	d="
M172.054047,204.183624 
	C172.700180,206.225098 173.346298,208.266571 173.528397,210.708435 
	C170.103821,211.066330 167.114761,210.772385 164.196518,211.103241 
	C163.003586,211.238480 161.963928,212.725800 160.854523,213.597992 
	C161.858932,214.583649 162.705612,216.048584 163.904556,216.443192 
	C165.724854,217.042252 167.789719,216.898178 169.777008,217.396454 
	C169.838226,218.158539 169.873108,218.593979 169.739670,219.268433 
	C168.998825,220.518387 168.426285,221.529312 167.515640,222.705536 
	C161.280884,225.841293 158.798233,225.462585 153.302765,220.466446 
	C152.499603,218.271606 151.582001,216.431030 151.380066,214.515045 
	C150.922150,210.170166 152.050308,206.262466 155.703690,203.460037 
	C159.558914,200.502777 163.646042,201.287201 167.772812,202.783859 
	C169.183548,203.295471 170.626053,203.719543 172.054047,204.183624 
z"/>
<path fill="#C2E13C" opacity="1.000000" stroke="none" 
	d="
M149.820984,155.463989 
	C150.688568,155.638947 151.560043,156.187088 152.713547,156.868622 
	C162.101883,167.663803 175.139191,167.107025 183.590881,155.707657 
	C184.754654,154.138016 185.988235,152.620163 187.516571,151.005432 
	C186.644241,155.700180 186.109222,160.769547 184.109177,165.173599 
	C179.749207,174.774155 169.143051,177.774414 161.051407,171.071579 
	C156.337402,167.166656 153.504303,160.991089 149.820984,155.463989 
z"/>
<path fill="#1A6CB9" opacity="1.000000" stroke="none" 
	d="
M151.020660,46.884239 
	C143.393646,43.105164 136.917145,45.412411 130.897873,50.570629 
	C129.703415,51.594227 128.165833,52.217438 126.421005,53.039333 
	C122.908035,45.478699 130.775818,34.992958 140.301773,34.130871 
	C145.941360,33.620502 150.680954,35.606014 154.769348,40.212540 
	C153.597290,42.870522 152.308975,44.877380 151.020660,46.884239 
z"/>
<path fill="#26CBD2" opacity="1.000000" stroke="none" 
	d="
M169.701950,30.001461 
	C176.994202,32.773869 181.775833,40.303993 180.550903,47.328018 
	C180.200302,49.338528 178.700104,51.989925 177.032471,52.687847 
	C175.431091,53.358047 172.095917,52.563316 170.982956,51.210712 
	C167.888412,47.449921 164.962662,43.315083 163.071976,38.860390 
	C160.872940,33.679150 163.399277,30.631021 169.701950,30.001461 
z"/>
<path fill="#29CBC9" opacity="1.000000" stroke="none" 
	d="
M207.827850,70.578369 
	C210.893036,79.681145 208.255951,86.597023 200.290161,91.465981 
	C198.428879,81.099594 193.264923,73.583694 184.276520,68.798515 
	C184.683762,67.782745 184.839417,66.961632 184.995071,66.140518 
	C185.453964,66.157585 185.912872,66.174660 186.769318,66.611534 
	C188.112091,67.012337 189.057343,66.993347 190.002579,66.974358 
	C195.856094,68.095833 201.709595,69.217300 207.827850,70.578369 
z"/>
<path fill="#182C53" opacity="1.000000" stroke="none" 
	d="
M50.879860,210.658447 
	C49.205410,211.046158 47.513340,211.061798 45.490883,211.038361 
	C44.602268,210.035324 44.044052,209.071381 43.485832,208.107452 
	C43.005001,208.123093 42.524170,208.138748 42.043339,208.154404 
	C42.043339,213.787323 41.924992,219.423828 42.095013,225.051620 
	C42.175785,227.725250 41.603817,230.068710 38.722496,229.783386 
	C37.673035,229.679474 36.178955,226.806213 36.123966,225.155273 
	C35.863560,217.336884 35.835724,209.495483 36.187683,201.683121 
	C36.271584,199.820801 37.717129,197.132202 39.268745,196.420639 
	C41.950943,195.190628 44.908989,195.997986 46.296177,199.238297 
	C47.864300,202.901260 49.344059,206.602051 50.879860,210.658447 
z"/>
<path fill="#29AFBF" opacity="1.000000" stroke="none" 
	d="
M224.203491,215.959717 
	C223.685684,212.600037 222.583176,209.651184 218.437134,209.919235 
	C214.199493,210.193207 213.699173,213.446365 213.606445,216.747131 
	C213.518082,219.892181 213.916962,223.087997 213.464859,226.168045 
	C213.275620,227.457260 211.443619,228.505325 210.358459,229.662994 
	C209.308151,228.463608 207.431137,227.318329 207.348465,226.055573 
	C206.959167,220.109589 206.850647,214.120529 207.156647,208.173309 
	C207.222626,206.890793 209.234589,205.022690 210.669312,204.648758 
	C213.137985,204.005341 215.883240,204.526672 218.466400,204.197769 
	C224.036972,203.488434 228.506927,206.948105 229.169403,213.354675 
	C227.350220,214.515518 225.776855,215.237610 224.203491,215.959717 
z"/>
<path fill="#23A7B9" opacity="1.000000" stroke="none" 
	d="
M172.033035,204.134155 
	C170.626053,203.719543 169.183548,203.295471 167.772812,202.783859 
	C163.646042,201.287201 159.558914,200.502777 155.703690,203.460037 
	C152.050308,206.262466 150.922150,210.170166 151.380066,214.515045 
	C151.582001,216.431030 152.499603,218.271606 152.959686,220.604034 
	C151.495712,222.068130 150.164337,223.074615 148.832962,224.081085 
	C143.813232,217.679199 143.478531,208.991837 148.001373,202.497269 
	C152.208847,196.455627 158.987106,194.087372 166.199005,196.853775 
	C168.810349,197.855453 170.834198,200.388779 172.828644,202.680939 
	C172.392151,203.442825 172.253143,203.746994 172.114105,204.051147 
	C172.114105,204.051147 172.012024,204.084702 172.033035,204.134155 
z"/>
<path fill="#22ACBC" opacity="1.000000" stroke="none" 
	d="
M274.889465,228.247330 
	C269.927216,230.362122 268.963928,229.837997 268.929932,225.187180 
	C268.870483,217.058914 268.935608,208.929825 268.917084,200.801132 
	C268.911926,198.534515 268.995758,195.849030 271.968170,196.428375 
	C273.277100,196.683487 274.968719,199.359528 275.015350,200.978745 
	C275.272919,209.925339 275.076752,218.884979 274.889465,228.247330 
z"/>
<path fill="#263258" opacity="1.000000" stroke="none" 
	d="
M100.984802,218.953186 
	C100.552773,219.077927 100.120743,219.202667 99.050423,219.341461 
	C97.942307,219.249146 97.472496,219.142761 97.002083,218.691391 
	C96.335106,217.730362 95.699562,217.075821 94.993118,216.509750 
	C94.366859,216.007919 93.661797,215.604431 93.358223,215.060791 
	C93.973541,213.966537 94.643623,212.225342 94.403908,212.089478 
	C92.538803,211.032455 90.082024,209.170273 88.615829,209.718216 
	C86.705750,210.432037 85.538536,213.133636 83.724548,215.153412 
	C81.916351,217.390015 80.692230,219.869553 77.413483,219.019211 
	C76.917496,210.853210 81.085556,204.997757 87.992493,204.157425 
	C95.130249,203.289001 100.016220,207.592941 101.490097,216.833298 
	C101.262238,218.011673 101.123520,218.482422 100.984802,218.953186 
z"/>
<path fill="#1A2A50" opacity="1.000000" stroke="none" 
	d="
M77.401527,219.422455 
	C80.692230,219.869553 81.916351,217.390015 84.171112,215.166412 
	C87.627022,215.056442 90.309273,215.106979 92.991524,215.157532 
	C93.661797,215.604431 94.366859,216.007919 94.993118,216.509750 
	C95.699562,217.075821 96.335106,217.730362 96.655174,218.783081 
	C95.855919,219.351120 95.402977,219.482498 94.513794,219.517883 
	C91.409332,219.481812 88.741127,219.541748 85.711441,219.446121 
	C83.155052,222.419739 83.509201,223.587280 87.420570,224.873489 
	C88.864006,224.870850 89.914940,224.817459 91.333260,224.841156 
	C94.425575,224.770767 96.898727,221.411530 99.859970,224.278610 
	C98.741150,229.595306 93.841591,232.517151 88.487053,230.777496 
	C83.030563,229.004715 78.599327,225.995850 77.401527,219.422455 
z"/>
<path fill="#234FAA" opacity="1.000000" stroke="none" 
	d="
M91.832108,80.940506 
	C96.982933,83.098267 98.003029,85.451012 96.058968,89.795586 
	C93.936630,94.538582 88.111504,98.054420 85.117645,95.741737 
	C83.379311,94.398903 82.031433,90.886620 82.463722,88.745430 
	C83.354149,84.334991 86.358711,81.136742 91.832108,80.940506 
z"/>
<path fill="#26ADBD" opacity="1.000000" stroke="none" 
	d="
M169.750702,217.069794 
	C167.789719,216.898178 165.724854,217.042252 163.904556,216.443192 
	C162.705612,216.048584 161.858932,214.583649 160.854523,213.597992 
	C161.963928,212.725800 163.003586,211.238480 164.196518,211.103241 
	C167.114761,210.772385 170.103821,211.066330 173.528000,211.092987 
	C177.683212,215.399841 176.591324,223.167877 171.353455,226.934799 
	C169.191055,228.489960 166.323212,229.064224 163.393738,229.659073 
	C163.794571,228.168503 164.584747,227.108398 165.359436,226.037140 
	C166.198395,224.876938 167.022934,223.706314 167.853760,222.540253 
	C168.426285,221.529312 168.998825,220.518387 169.983154,219.116165 
	C170.180206,218.173187 169.965454,217.621490 169.750702,217.069794 
z"/>
<path fill="#1A2A50" opacity="1.000000" stroke="none" 
	d="
M133.986206,207.666336 
	C135.307953,206.308777 136.611481,205.379150 137.915009,204.449524 
	C138.720474,205.900085 140.158066,207.324539 140.219193,208.805801 
	C140.452026,214.447021 140.199936,220.106705 140.215256,225.759247 
	C140.221436,228.036987 139.805389,229.662140 136.984177,229.576981 
	C134.164200,229.491837 133.888992,227.780426 133.916824,225.552261 
	C133.989517,219.733627 133.957962,213.913696 133.986206,207.666336 
z"/>
<path fill="#22B0C1" opacity="1.000000" stroke="none" 
	d="
M246.008682,222.479462 
	C245.557846,222.526260 245.107025,222.573074 244.329712,222.131241 
	C244.781570,216.780701 239.527328,218.357330 237.969269,215.989059 
	C240.021408,210.567032 241.900482,205.068802 244.233627,199.770508 
	C244.912766,198.228241 246.888824,197.257080 248.635834,196.529343 
	C249.004456,199.371719 249.007660,201.708908 248.875519,204.377563 
	C247.229858,208.657379 245.719528,212.605713 244.113266,216.804855 
	C245.712997,217.003647 246.847107,217.144577 248.030518,217.604263 
	C248.397873,218.940506 248.715927,219.957977 248.712265,220.985107 
	C247.596588,221.489639 246.802643,221.984558 246.008682,222.479462 
z"/>
<path fill="#5DE4C7" opacity="1.000000" stroke="none" 
	d="
M193.053162,52.980003 
	C193.670364,52.628849 193.947739,52.440472 194.249420,52.307087 
	C198.014404,50.642460 201.766068,50.817142 203.813065,54.529285 
	C204.686432,56.113110 204.118103,59.652092 202.836411,61.025551 
	C200.063080,63.997429 196.229904,63.723591 192.778687,61.663342 
	C189.239716,59.550732 189.279617,57.265617 193.053162,52.980003 
z"/>
<path fill="#2FB8C7" opacity="1.000000" stroke="none" 
	d="
M249.033997,220.975464 
	C248.715927,219.957977 248.397873,218.940506 248.440216,217.526123 
	C250.819351,216.766006 252.838074,216.402786 255.277069,216.034729 
	C257.627106,216.311874 259.556854,216.593887 261.486603,216.875885 
	C262.798462,219.738312 264.294495,222.536530 265.326508,225.496506 
	C265.709686,226.595505 265.005157,228.073730 264.796661,229.379013 
	C263.152740,229.022491 260.246735,228.985947 260.062531,228.259338 
	C258.444183,221.876190 253.569885,222.708481 248.693481,222.494598 
	C248.622208,221.814072 248.828094,221.394760 249.033997,220.975464 
z"/>
<path fill="#B8E23B" opacity="1.000000" stroke="none" 
	d="
M228.295227,108.200500 
	C227.613998,108.973587 227.214951,109.533943 226.681366,109.896057 
	C224.082245,111.659882 220.686356,113.201653 218.754303,110.326492 
	C217.541794,108.522110 218.160690,104.693817 219.224594,102.348053 
	C220.644836,99.216614 223.947784,97.966515 227.200546,99.809082 
	C230.630585,101.752083 230.481949,104.802849 228.295227,108.200500 
z"/>
<path fill="#1B74BE" opacity="1.000000" stroke="none" 
	d="
M151.302307,47.063339 
	C152.308975,44.877380 153.597290,42.870522 154.914612,40.524288 
	C158.242844,45.191669 161.542053,50.198429 164.949844,55.928802 
	C165.363266,58.764839 165.668121,60.877262 165.716187,62.883354 
	C164.968246,62.518436 164.477097,62.259846 163.757950,61.991993 
	C163.529938,61.982731 163.073654,61.972294 162.912445,61.673767 
	C160.151810,57.917255 157.552383,54.459274 154.952957,51.001293 
	C153.829941,49.748344 152.706940,48.495392 151.302307,47.063339 
z"/>
<path fill="#22ACBC" opacity="1.000000" stroke="none" 
	d="
M261.376160,216.507584 
	C259.556854,216.593887 257.627106,216.311874 255.051636,215.768463 
	C252.607590,211.686737 250.809235,207.866409 249.010880,204.046082 
	C249.007660,201.708908 249.004456,199.371719 249.002045,196.599884 
	C250.907562,197.545471 253.596237,198.518341 254.566025,200.384491 
	C257.189697,205.433182 259.082794,210.861511 261.376160,216.507584 
z"/>
<path fill="#2FC1D6" opacity="1.000000" stroke="none" 
	d="
M118.681885,47.367222 
	C116.584961,48.829048 114.098701,51.212044 112.791275,50.682816 
	C110.794525,49.874557 108.687675,47.195103 108.361244,45.046669 
	C108.073311,43.151592 109.680733,40.348637 111.307945,38.927559 
	C113.758133,36.787766 117.508362,38.573471 118.557625,42.113712 
	C119.007004,43.629944 118.754265,45.354271 118.681885,47.367222 
z"/>
<path fill="#26CBD2" opacity="1.000000" stroke="none" 
	d="
M165.972977,62.989685 
	C165.668121,60.877262 165.363266,58.764839 165.076141,56.249023 
	C171.499298,59.180382 177.904724,62.515129 184.652603,65.995193 
	C184.839417,66.961632 184.683762,67.782745 183.936554,68.799263 
	C182.892380,69.001175 182.439789,69.007683 181.546478,69.009262 
	C176.738174,68.335999 172.370575,67.667656 167.934845,66.684189 
	C167.235474,65.242599 166.604218,64.116142 165.972977,62.989685 
z"/>
<path fill="#2FC1D6" opacity="1.000000" stroke="none" 
	d="
M115.833199,141.312378 
	C117.448555,146.484253 114.775551,150.371490 109.581642,149.731094 
	C107.609566,149.487961 104.711639,147.923141 104.277138,146.384308 
	C103.787575,144.650467 105.599854,142.266678 107.046524,139.971161 
	C110.399147,140.288635 113.116173,140.800507 115.833199,141.312378 
z"/>
<path fill="#263258" opacity="1.000000" stroke="none" 
	d="
M122.835953,220.685287 
	C124.555511,222.080231 126.275078,223.475174 128.319107,224.924652 
	C128.807846,228.321777 127.425888,229.513321 123.933914,229.250320 
	C120.177399,228.967392 116.360649,229.484222 112.272156,229.381104 
	C112.308014,227.594971 112.641899,226.079865 113.390892,224.267548 
	C117.999077,226.127426 120.661415,224.076797 122.835953,220.685287 
z"/>
<path fill="#22ACBC" opacity="1.000000" stroke="none" 
	d="
M237.741837,216.251251 
	C239.527328,218.357330 244.781570,216.780701 244.009033,222.004761 
	C242.807693,223.580780 241.275269,224.611389 240.465454,226.049057 
	C239.056854,228.549759 237.521576,230.948029 234.490402,229.270996 
	C233.697113,228.832108 234.029236,225.584381 234.508713,223.805695 
	C235.187439,221.287827 236.482681,218.936142 237.741837,216.251251 
z"/>
<path fill="#22B0C1" opacity="1.000000" stroke="none" 
	d="
M167.515656,222.705536 
	C167.022934,223.706314 166.198395,224.876938 165.359436,226.037140 
	C164.584747,227.108398 163.794571,228.168503 163.003860,229.611969 
	C157.376419,230.820923 152.791016,228.917496 148.953186,224.401108 
	C150.164337,223.074615 151.495712,222.068130 153.170166,220.924072 
	C158.798233,225.462585 161.280884,225.841293 167.515656,222.705536 
z"/>
<path fill="#0B1779" opacity="1.000000" stroke="none" 
	d="
M104.866623,88.330902 
	C109.628914,83.721939 114.275566,79.436882 118.918709,75.148026 
	C120.044113,74.108498 121.157997,73.056496 122.639267,72.401932 
	C121.868378,82.435585 115.318771,87.051109 106.622002,90.025406 
	C105.725670,90.017937 105.213463,90.015656 104.701248,90.013367 
	C104.717392,89.560043 104.733543,89.106712 104.866623,88.330902 
z"/>
<path fill="#23A7B9" opacity="1.000000" stroke="none" 
	d="
M224.131195,216.416321 
	C225.776855,215.237610 227.350220,214.515518 229.332260,213.709091 
	C229.740936,213.624771 229.714584,213.663239 229.496262,214.022247 
	C229.515610,215.586014 229.753281,216.790771 229.990967,217.995529 
	C230.005051,220.700317 230.019135,223.405090 229.692719,226.698578 
	C227.660843,227.187149 225.969452,227.087036 224.278061,226.986938 
	C224.205002,223.615601 224.131943,220.244263 224.131195,216.416321 
z"/>
<path fill="#1D7CC6" opacity="1.000000" stroke="none" 
	d="
M130.401001,137.173538 
	C131.370941,136.232208 132.554489,135.406799 133.840500,134.797623 
	C136.778687,133.405823 139.665985,133.270645 141.562729,136.378632 
	C142.824875,138.446762 146.072281,140.758118 141.383163,143.275757 
	C137.540543,141.411560 134.100845,139.399612 130.401001,137.173538 
z"/>
<path fill="#182C53" opacity="1.000000" stroke="none" 
	d="
M141.058380,197.824219 
	C139.347412,199.148865 137.719803,200.650131 135.971832,200.806564 
	C135.214081,200.874374 133.539429,198.170074 133.542313,196.727432 
	C133.544357,195.706863 136.036285,193.631363 136.764069,193.886734 
	C138.420486,194.467941 139.675064,196.194290 141.058380,197.824219 
z"/>
<path fill="#ECEDEE" opacity="1.000000" stroke="none" 
	d="
M115.880341,140.931763 
	C113.116173,140.800507 110.399147,140.288635 107.331749,139.772675 
	C106.986282,138.171875 106.991196,136.575150 106.989540,134.578461 
	C107.734802,134.201645 108.486618,134.224777 109.615471,134.221634 
	C112.088661,134.534546 114.184822,134.873718 116.665314,135.356140 
	C116.675591,137.183304 116.301544,138.867218 115.880341,140.931763 
z"/>
<path fill="#2FB8C7" opacity="1.000000" stroke="none" 
	d="
M194.384491,230.037582 
	C193.363831,228.654602 192.726639,227.315186 192.035950,225.658905 
	C193.848587,224.725327 195.679230,223.846893 197.593750,223.587494 
	C198.792633,223.425049 200.117737,224.194153 201.386200,224.545288 
	C200.996536,225.674820 200.938675,227.296249 200.147217,227.830109 
	C198.567001,228.896027 196.584381,229.365402 194.384491,230.037582 
z"/>
<path fill="#C2E13C" opacity="1.000000" stroke="none" 
	d="
M205.639816,149.125885 
	C206.157410,149.292053 206.313202,149.356369 206.443253,149.454697 
	C209.069031,151.440369 209.560120,153.891769 206.971527,155.973312 
	C206.130402,156.649658 202.904495,156.129593 202.642685,155.442719 
	C201.648804,152.835220 201.102142,149.796143 205.639816,149.125885 
z"/>
<path fill="#1D7CC6" opacity="1.000000" stroke="none" 
	d="
M150.400330,27.011158 
	C151.895813,25.478323 153.396301,24.308096 154.896759,23.137875 
	C155.733124,24.388393 157.347855,25.747396 157.192825,26.859735 
	C157.028931,28.035620 155.241287,29.708408 154.048309,29.809311 
	C152.910782,29.905525 151.625610,28.255896 150.400330,27.011158 
z"/>
<path fill="#E2E4E6" opacity="1.000000" stroke="none" 
	d="
M99.876587,223.934387 
	C96.898727,221.411530 94.425575,224.770767 91.401833,224.525650 
	C92.385353,222.626663 93.667694,221.120255 94.950035,219.613861 
	C95.402977,219.482498 95.855919,219.351120 96.655769,219.128052 
	C97.472496,219.142761 97.942307,219.249146 98.748199,219.491165 
	C99.353912,220.947922 99.623558,222.269058 99.876587,223.934387 
z"/>
<path fill="#263258" opacity="1.000000" stroke="none" 
	d="
M107.549026,207.885742 
	C109.043495,210.509598 110.412857,213.377579 105.170227,213.975662 
	C105.592415,212.004105 106.415108,210.032990 107.549026,207.885742 
z"/>
<path fill="#29AFBF" opacity="1.000000" stroke="none" 
	d="
M224.250977,227.354553 
	C225.969452,227.087036 227.660843,227.187149 229.660187,227.148346 
	C229.265106,227.966202 228.452667,229.778839 227.881241,229.705811 
	C226.598587,229.541855 225.435608,228.441360 224.250977,227.354553 
z"/>
<path fill="#29AFBF" opacity="1.000000" stroke="none" 
	d="
M230.182098,217.760986 
	C229.753281,216.790771 229.515610,215.586014 229.510315,214.039490 
	C229.952866,214.973953 230.163055,216.250183 230.182098,217.760986 
z"/>
<path fill="#E2E4E6" opacity="1.000000" stroke="none" 
	d="
M101.148682,219.192215 
	C101.123520,218.482422 101.262238,218.011673 101.600510,217.230286 
	C102.378372,217.228134 102.956696,217.536606 103.769592,217.923157 
	C104.068703,218.164734 104.133247,218.328247 104.113754,218.741730 
	C103.124001,219.138199 102.218277,219.284714 101.148682,219.192215 
z"/>
<path fill="#22ACBC" opacity="1.000000" stroke="none" 
	d="
M248.712265,220.985107 
	C248.828094,221.394760 248.622208,221.814072 248.266632,222.380997 
	C247.643845,222.581085 247.170700,222.633545 246.353119,222.582733 
	C246.802643,221.984558 247.596588,221.489639 248.712265,220.985107 
z"/>
<path fill="#26CBD2" opacity="1.000000" stroke="none" 
	d="
M189.734024,66.816132 
	C189.057343,66.993347 188.112091,67.012337 187.088440,66.745529 
	C187.828506,66.525787 188.646988,66.591850 189.734024,66.816132 
z"/>
<path fill="#122285" opacity="1.000000" stroke="none" 
	d="
M104.523575,90.179123 
	C105.213463,90.015656 105.725670,90.017937 106.467407,90.277023 
	C106.368889,90.753662 106.040840,90.973511 105.712791,91.193359 
	C105.476723,91.129509 105.240654,91.065651 104.645996,90.914566 
	C104.287399,90.827339 104.345894,90.344879 104.523575,90.179123 
z"/>
<path fill="#F1FAFA" opacity="1.000000" stroke="none" 
	d="
M172.337158,204.032379 
	C172.253143,203.746994 172.392151,203.442825 172.790588,203.077621 
	C172.886734,203.348923 172.723465,203.681259 172.337158,204.032379 
z"/>
<path fill="#263258" opacity="1.000000" stroke="none" 
	d="
M104.239517,222.267731 
	C104.613632,222.146286 104.790390,222.326294 104.960304,222.752945 
	C104.713928,222.793030 104.410164,222.649567 104.239517,222.267731 
z"/>
<path fill="#C2E13C" opacity="1.000000" stroke="none" 
	d="
M149.175323,154.213287 
	C149.492584,154.094666 149.718369,154.327835 149.866638,154.902954 
	C149.650314,154.925064 149.415222,154.698471 149.175323,154.213287 
z"/>
<path fill="#56DCD4" opacity="1.000000" stroke="none" 
	d="
M145.286819,172.466095 
	C145.253082,172.249741 145.431351,172.128937 145.803772,172.024200 
	C145.889420,172.252670 145.723053,172.426468 145.286819,172.466095 
z"/>
<path fill="#E2E4E6" opacity="1.000000" stroke="none" 
	d="
M117.004280,269.018982 
	C110.235115,271.434418 98.029358,268.773407 93.439339,262.834198 
	C100.021149,261.467621 105.960800,260.263794 111.882370,258.976837 
	C112.908035,258.753906 113.857140,258.178741 114.924194,257.387817 
	C124.727386,256.680328 134.447983,256.351288 144.689911,256.269623 
	C145.474152,257.008209 145.737076,257.499390 145.998108,258.321106 
	C145.990372,259.091644 145.984528,259.531647 145.564133,259.976379 
	C143.768234,259.979919 142.386871,259.978729 140.708344,259.685669 
	C131.095200,260.043396 121.768982,260.585693 112.475876,261.474213 
	C111.273132,261.589233 110.241447,263.493439 109.130524,264.568848 
	C110.377411,265.701141 111.491608,267.058594 112.912392,267.895752 
	C114.088600,268.588806 115.626587,268.667877 117.004280,269.018982 
z"/>
<path fill="#E2E4E6" opacity="1.000000" stroke="none" 
	d="
M200.572235,257.014771 
	C203.555557,257.995453 206.085724,259.094025 208.704208,259.908813 
	C210.579727,260.492432 212.706757,260.392822 214.470963,261.168213 
	C215.805466,261.754761 217.818390,263.514038 217.627045,264.269745 
	C217.269119,265.683411 215.739761,267.320435 214.322968,267.837311 
	C211.408661,268.900543 208.276108,269.609344 205.181824,269.884705 
	C198.775665,270.454712 192.335800,270.646027 185.542358,270.595337 
	C187.657822,269.798065 190.159149,269.487854 192.619690,268.979980 
	C197.510315,267.970490 203.182861,269.362915 207.459793,264.239624 
	C202.656799,260.802185 197.468536,260.550598 192.330872,259.930573 
	C190.499588,259.709595 188.766434,258.675385 187.428467,258.007629 
	C190.578842,257.673401 193.289230,257.343872 195.999619,257.014374 
	C197.385376,257.013336 198.771118,257.012268 200.572235,257.014771 
z"/>
<path fill="#ECEDEE" opacity="1.000000" stroke="none" 
	d="
M146.000000,257.990601 
	C145.737076,257.499390 145.474152,257.008209 145.105621,256.258484 
	C150.818451,255.666031 156.635620,255.110428 162.455795,255.077164 
	C166.242706,255.055496 170.033981,255.794144 173.514404,256.594055 
	C171.470322,257.325409 169.735168,257.654877 167.532196,257.987946 
	C160.042938,257.991211 153.021469,257.990906 146.000000,257.990601 
z"/>
<path fill="#E2E4E6" opacity="1.000000" stroke="none" 
	d="
M168.000000,257.984375 
	C169.735168,257.654877 171.470322,257.325409 173.610962,256.988800 
	C175.397415,256.984009 176.778366,256.986359 178.951645,256.993835 
	C180.498901,256.996094 181.253860,256.993164 182.008804,256.990234 
	C182.451828,256.990234 182.894836,256.990204 183.668488,257.247070 
	C183.998260,257.675629 183.997406,257.847321 183.705414,258.309875 
	C179.601883,258.743134 175.789459,258.885437 171.579407,259.023804 
	C170.119354,259.022705 169.056946,259.025604 167.996719,258.767456 
	C167.999252,258.332428 167.999619,258.158417 168.000000,257.984375 
z"/>
<path fill="#ECEDEE" opacity="1.000000" stroke="none" 
	d="
M183.996552,258.018982 
	C183.997406,257.847321 183.998260,257.675629 184.000763,257.246338 
	C187.811432,256.799591 191.620483,256.610504 195.714569,256.717896 
	C193.289230,257.343872 190.578842,257.673401 187.054764,258.005890 
	C185.492905,258.012268 184.744720,258.015625 183.996552,258.018982 
z"/>
<path fill="#ECEDEE" opacity="1.000000" stroke="none" 
	d="
M181.956329,256.657593 
	C181.253860,256.993164 180.498901,256.996094 179.366348,256.993134 
	C179.960449,256.766479 180.932144,256.545685 181.956329,256.657593 
z"/>
<path fill="#D6D9DB" opacity="1.000000" stroke="none" 
	d="
M183.705414,258.309875 
	C184.744720,258.015625 185.492905,258.012268 186.614777,258.010620 
	C188.766434,258.675385 190.499588,259.709595 192.330872,259.930573 
	C197.468536,260.550598 202.656799,260.802185 207.459793,264.239624 
	C203.182861,269.362915 197.510315,267.970490 192.619690,268.979980 
	C190.159149,269.487854 187.657822,269.798065 185.078644,270.588440 
	C183.598877,270.981781 182.215408,270.984344 180.151398,270.704651 
	C177.639877,270.272705 175.808884,270.123016 174.075790,269.583435 
	C178.931641,268.463959 183.712097,267.850067 188.433395,266.931976 
	C189.790482,266.668060 190.976898,265.526520 192.241562,264.787384 
	C192.090240,264.093231 191.938919,263.399109 191.787598,262.704956 
	C186.806259,262.136353 181.807526,261.682983 176.853226,260.935272 
	C175.170212,260.681244 173.599228,259.684937 171.977051,259.027771 
	C175.789459,258.885437 179.601883,258.743134 183.705414,258.309875 
z"/>
<path fill="#D6D9DB" opacity="1.000000" stroke="none" 
	d="
M117.335129,269.015381 
	C115.626587,268.667877 114.088600,268.588806 112.912392,267.895752 
	C111.491608,267.058594 110.377411,265.701141 109.130524,264.568848 
	C110.241447,263.493439 111.273132,261.589233 112.475876,261.474213 
	C121.768982,260.585693 131.095200,260.043396 140.421722,259.984161 
	C135.679535,261.050018 130.908524,261.398895 126.185226,262.079010 
	C124.789352,262.279999 123.528084,263.415833 122.205132,264.123260 
	C123.359886,265.071808 124.519287,266.014801 125.667786,266.970856 
	C126.459732,267.630127 127.236603,268.307526 127.568832,268.985229 
	C124.408188,269.001038 121.698921,269.008362 118.989655,269.015717 
	C118.548431,269.014404 118.107208,269.013062 117.335129,269.015381 
z"/>
<path fill="#E2E4E6" opacity="1.000000" stroke="none" 
	d="
M119.083374,269.407654 
	C121.698921,269.008362 124.408188,269.001038 127.940781,268.988678 
	C129.509064,268.981506 130.254028,268.979370 131.269684,269.268677 
	C134.359985,269.380188 137.179596,269.200226 140.431122,269.017029 
	C146.901581,269.018890 152.940125,269.023956 158.982880,269.358459 
	C158.988892,270.127319 158.990707,270.566681 158.992523,271.006073 
	C149.816071,271.223907 140.637421,271.656372 131.464188,271.561859 
	C127.362877,271.519623 123.272461,270.419586 119.083374,269.407654 
z"/>
<path fill="#E2E4E6" opacity="1.000000" stroke="none" 
	d="
M173.977890,269.973328 
	C175.808884,270.123016 177.639877,270.272705 179.735931,270.702393 
	C175.196655,271.187714 170.392319,271.393036 165.292969,271.045013 
	C164.996994,270.318604 164.995987,270.145508 165.445160,269.977997 
	C168.589508,269.980164 171.283707,269.976746 173.977890,269.973328 
z"/>
<path fill="#D6D9DB" opacity="1.000000" stroke="none" 
	d="
M164.994980,269.972443 
	C164.995987,270.145508 164.996994,270.318604 164.998993,270.751434 
	C163.283966,271.008850 161.567917,271.006500 159.422211,271.005096 
	C158.990707,270.566681 158.988892,270.127319 159.388824,269.346863 
	C161.525375,269.328003 163.260178,269.650208 164.994980,269.972443 
z"/>
<path fill="#0D51AB" opacity="1.000000" stroke="none" 
	d="
M152.892029,112.909317 
	C151.553986,114.021812 150.125275,115.042992 148.895248,116.264267 
	C145.496307,119.639091 142.406281,123.361168 138.782898,126.466080 
	C131.963562,132.309662 124.485382,132.536087 116.423553,128.026718 
	C113.812012,124.531464 111.565315,121.077324 109.559296,117.265724 
	C113.997711,115.734261 116.415398,113.468544 117.885963,108.873253 
	C119.576416,103.590836 123.210266,98.930328 126.413261,93.999756 
	C130.521393,93.333832 134.216263,92.667831 137.995789,92.432404 
	C136.475403,102.016655 144.179199,97.713661 147.637955,99.259613 
	C149.018280,108.929962 149.018280,108.929962 154.880890,109.356247 
	C154.130188,110.734962 153.511108,111.822144 152.892029,112.909317 
z"/>
<path fill="#092F90" opacity="1.000000" stroke="none" 
	d="
M105.791481,91.530182 
	C106.040840,90.973511 106.368889,90.753662 106.851532,90.282204 
	C115.318771,87.051109 121.868378,82.435585 123.006195,72.395935 
	C123.595505,71.186241 124.179970,70.374245 124.886932,69.279396 
	C125.416100,69.730278 125.963844,70.421669 126.199463,71.206741 
	C126.660866,72.744102 126.948212,74.333702 127.648270,76.382965 
	C127.310791,82.216133 126.632645,87.568016 125.599686,92.972832 
	C120.796234,97.181725 115.909393,98.183411 110.352928,95.277321 
	C109.063141,94.602737 107.541603,94.371269 106.126709,93.935905 
	C106.041191,93.246277 105.955681,92.556641 105.791481,91.530182 
z"/>
<path fill="#0B4AA8" opacity="1.000000" stroke="none" 
	d="
M106.101616,94.362320 
	C107.541603,94.371269 109.063141,94.602737 110.352928,95.277321 
	C115.909393,98.183411 120.796234,97.181725 125.616386,93.243057 
	C125.991936,93.640129 125.995964,93.819908 126.000000,93.999695 
	C123.210266,98.930328 119.576416,103.590836 117.885963,108.873253 
	C116.415398,113.468544 113.997711,115.734261 109.441505,116.946228 
	C108.080864,109.585701 107.078697,102.187225 106.101616,94.362320 
z"/>
<path fill="#FAFCFA" opacity="1.000000" stroke="none" 
	d="
M175.386932,142.345047 
	C174.041077,139.351059 173.077301,136.274429 171.931061,132.615372 
	C170.097061,132.464432 167.522202,132.252502 164.490097,131.510406 
	C163.950150,128.984528 163.867447,126.988823 163.919861,124.589355 
	C166.897263,123.422997 169.739517,122.660408 173.152267,121.744759 
	C173.152267,119.919403 172.825729,117.725403 173.276459,115.704781 
	C173.540878,114.519409 175.042740,113.610069 176.407654,112.666840 
	C178.817734,112.860916 180.808151,112.964714 182.826050,113.520523 
	C182.853531,116.835411 182.853531,119.698288 182.853531,122.680473 
	C186.412781,122.860275 189.159988,122.999054 191.878677,123.165298 
	C191.850174,123.192764 191.870972,123.269142 191.870972,123.269142 
	C191.504440,126.235390 191.137909,129.201645 190.382614,132.345139 
	C187.848633,132.522385 185.703400,132.522385 183.180023,132.522385 
	C182.960098,135.870453 182.770767,138.752975 182.563766,141.904282 
	C180.036163,142.037506 177.902588,142.149963 175.386932,142.345047 
z"/>
<path fill="#93CF3A" opacity="1.000000" stroke="none" 
	d="
M201.466751,106.745766 
	C202.889420,107.536942 204.312103,108.328117 205.922073,109.355057 
	C205.278198,110.709930 204.587051,111.976677 203.590744,112.921654 
	C199.969116,116.356583 196.245346,119.683807 192.215546,123.160400 
	C191.870972,123.269142 191.850174,123.192764 191.903076,122.776825 
	C195.126236,117.155846 198.296494,111.950806 201.466751,106.745766 
z"/>
<path fill="#82C833" opacity="1.000000" stroke="none" 
	d="
M163.784729,124.993118 
	C163.867447,126.988823 163.950150,128.984528 164.061188,131.405975 
	C159.670013,136.529099 154.318192,135.963440 148.464981,134.115295 
	C148.128448,137.154755 147.833221,139.821167 147.236511,142.759491 
	C144.203873,136.337524 148.305008,130.537933 149.797577,124.396255 
	C152.701019,126.751274 155.321915,127.427338 158.589203,125.832039 
	C160.097916,125.095398 162.039459,125.245224 163.784729,124.993118 
z"/>
<path fill="#0C4DA5" opacity="1.000000" stroke="none" 
	d="
M126.413261,93.999756 
	C125.995964,93.819908 125.991936,93.640129 125.971207,93.190125 
	C126.632645,87.568016 127.310791,82.216133 127.982941,76.434937 
	C127.267387,71.028389 130.206329,68.252693 134.170181,66.465439 
	C142.060516,62.907787 149.443146,58.772930 154.655029,51.149551 
	C157.552383,54.459274 160.151810,57.917255 162.631256,61.861519 
	C156.951294,68.233406 152.766205,76.204453 142.655853,75.151390 
	C141.746994,75.056725 140.632797,76.112877 139.742111,76.800552 
	C134.845383,80.581215 137.620285,85.211914 138.349304,89.918816 
	C138.177948,90.814857 138.044540,91.408348 137.911133,92.001839 
	C134.216263,92.667831 130.521393,93.333832 126.413261,93.999756 
z"/>
<path fill="#14B3C3" opacity="1.000000" stroke="none" 
	d="
M181.987183,69.014191 
	C182.439789,69.007683 182.892380,69.001175 183.684967,68.993919 
	C193.264923,73.583694 198.428879,81.099594 199.985718,91.608871 
	C199.965164,92.715851 199.931534,93.427650 199.566330,94.572327 
	C196.825974,97.653282 194.417206,100.301361 191.546844,102.948212 
	C187.399567,103.014214 183.713882,103.081429 179.568069,103.084450 
	C175.433258,103.187576 171.758545,103.354904 168.039429,103.090454 
	C167.614243,101.302467 167.233475,99.946259 167.122955,98.346443 
	C167.834778,95.427895 168.276367,92.752960 169.031830,89.897507 
	C172.380096,83.299278 175.317902,76.841553 181.083557,72.213997 
	C181.787430,71.649078 181.705139,70.104668 181.987183,69.014191 
z"/>
<path fill="#73C731" opacity="1.000000" stroke="none" 
	d="
M201.350616,106.527054 
	C198.296494,111.950806 195.126236,117.155846 191.931580,122.749359 
	C189.159988,122.999054 186.412781,122.860275 182.853531,122.680473 
	C182.853531,119.698288 182.853531,116.835411 183.148666,113.471634 
	C186.459412,110.373718 182.258987,110.409195 182.218521,108.718216 
	C185.719879,106.791092 189.000687,105.153282 192.657501,103.583160 
	C195.692673,104.389351 198.351807,105.127853 201.010956,105.866356 
	C201.010956,105.866356 201.234467,106.308334 201.350616,106.527054 
z"/>
<path fill="#43D7D1" opacity="1.000000" stroke="none" 
	d="
M201.006958,105.434982 
	C198.351807,105.127853 195.692673,104.389351 192.592407,103.441147 
	C192.151291,103.231445 192.008423,102.949432 192.008423,102.949432 
	C194.417206,100.301361 196.825974,97.653282 199.565903,94.928726 
	C200.265701,98.236038 200.634338,101.619820 201.006958,105.434982 
z"/>
<path fill="#F7F7F7" opacity="1.000000" stroke="none" 
	d="
M122.833748,220.279053 
	C120.661415,224.076797 117.999077,226.127426 113.444725,223.880249 
	C112.255043,221.371765 110.913048,218.993774 110.718994,216.525528 
	C110.430435,212.855286 112.325050,210.072876 116.328766,209.967911 
	C120.489731,209.858795 122.528427,212.475037 122.925552,216.432007 
	C123.039200,217.564392 122.870682,218.725098 122.833748,220.279053 
z"/>
<path fill="#72C436" opacity="1.000000" stroke="none" 
	d="
M191.546844,102.948212 
	C192.008423,102.949432 192.151291,103.231445 192.216400,103.373459 
	C189.000687,105.153282 185.719879,106.791092 181.804474,108.716553 
	C178.666534,109.069260 175.505676,108.180603 175.987976,112.576569 
	C175.042740,113.610069 173.540878,114.519409 173.276459,115.704781 
	C172.825729,117.725403 173.152267,119.919403 173.152267,121.744759 
	C169.739517,122.660408 166.897263,123.422997 163.919876,124.589355 
	C162.039459,125.245224 160.097916,125.095398 158.589203,125.832039 
	C155.321915,127.427338 152.701019,126.751274 150.045380,124.110657 
	C150.820450,121.346100 151.764038,118.920990 153.066330,115.972870 
	C154.288132,114.308029 155.151215,113.166199 156.417603,112.031326 
	C161.624557,113.703781 166.272141,113.671768 168.512390,108.417183 
	C169.890656,105.184433 171.857620,105.086433 174.604279,104.908852 
	C176.442490,104.789993 178.222260,103.767044 180.028183,103.148651 
	C183.713882,103.081429 187.399567,103.014214 191.546844,102.948212 
z"/>
<path fill="#23A7B9" opacity="1.000000" stroke="none" 
	d="
M156.014282,112.024361 
	C155.151215,113.166199 154.288132,114.308029 153.183319,115.635117 
	C152.951614,115.093254 152.961609,114.366119 152.931824,113.274155 
	C153.511108,111.822144 154.130188,110.734962 155.187897,109.189880 
	C156.079391,108.800659 156.532257,108.869339 157.026169,109.267982 
	C156.716232,110.406754 156.365250,111.215561 156.014282,112.024361 
z"/>
<path fill="#F1FAFA" opacity="1.000000" stroke="none" 
	d="
M196.379822,211.943665 
	C195.942383,213.185562 195.363373,214.794739 194.608185,214.882172 
	C191.865829,215.199692 189.064468,215.007401 186.201202,215.007401 
	C187.602188,208.716614 190.958298,207.698257 196.379822,211.943665 
z"/>
<path fill="#22B0C1" opacity="1.000000" stroke="none" 
	d="
M169.777008,217.396454 
	C169.965454,217.621490 170.180206,218.173187 170.151489,218.877136 
	C169.873108,218.593979 169.838226,218.158539 169.777008,217.396454 
z"/>
<path fill="#ECEDEE" opacity="1.000000" stroke="none" 
	d="
M93.358223,215.060791 
	C90.309273,215.106979 87.627022,215.056442 84.498215,214.992889 
	C85.538536,213.133636 86.705750,210.432037 88.615829,209.718216 
	C90.082024,209.170273 92.538803,211.032455 94.403908,212.089478 
	C94.643623,212.225342 93.973541,213.966537 93.358223,215.060791 
z"/>
<path fill="#FEFEFE" opacity="1.000000" stroke="none" 
	d="
M94.513794,219.517868 
	C93.667694,221.120255 92.385353,222.626663 91.034439,224.448563 
	C89.914940,224.817459 88.864006,224.870850 87.384331,224.576019 
	C86.661362,222.685776 86.367134,221.143738 86.072914,219.601685 
	C88.741127,219.541748 91.409332,219.481812 94.513794,219.517868 
z"/>
<path fill="#E2E4E6" opacity="1.000000" stroke="none" 
	d="
M85.711441,219.446136 
	C86.367134,221.143738 86.661362,222.685776 86.991821,224.525269 
	C83.509201,223.587280 83.155052,222.419739 85.711441,219.446136 
z"/>
<path fill="#F4F9FB" opacity="1.000000" stroke="none" 
	d="
M248.875534,204.377563 
	C250.809235,207.866409 252.607590,211.686737 254.631363,215.773315 
	C252.838074,216.402786 250.819351,216.766006 248.390930,217.207367 
	C246.847107,217.144577 245.712997,217.003647 244.113266,216.804855 
	C245.719528,212.605713 247.229858,208.657379 248.875534,204.377563 
z"/>
<path fill="#0D5EB0" opacity="1.000000" stroke="none" 
	d="
M165.716187,62.883358 
	C166.604218,64.116142 167.235474,65.242599 167.910507,67.122818 
	C167.958817,74.781708 167.963348,81.686836 167.556152,88.569023 
	C164.282654,88.546074 161.420868,88.546074 159.201370,88.546074 
	C156.753235,84.771217 161.214554,78.723877 154.013382,78.194305 
	C155.063446,76.068962 155.676025,73.586662 157.226440,72.639481 
	C161.366241,70.110359 163.413040,66.614792 163.985962,62.001255 
	C164.477097,62.259846 164.968246,62.518436 165.716187,62.883358 
z"/>
<path fill="#1558AE" opacity="1.000000" stroke="none" 
	d="
M163.757950,61.991993 
	C163.413040,66.614792 161.366241,70.110359 157.226440,72.639481 
	C155.676025,73.586662 155.063446,76.068962 153.582413,78.291672 
	C151.577682,78.859871 150.013809,78.987755 148.273010,79.130104 
	C148.099030,82.423645 147.947937,85.283974 147.797974,88.123161 
	C144.409958,88.660706 141.398605,89.138481 138.387268,89.616264 
	C137.620285,85.211914 134.845383,80.581215 139.742111,76.800552 
	C140.632797,76.112877 141.746994,75.056725 142.655853,75.151390 
	C152.766205,76.204453 156.951294,68.233406 162.792465,62.160049 
	C163.073654,61.972294 163.529938,61.982731 163.757950,61.991993 
z"/>
<path fill="#18A8C7" opacity="1.000000" stroke="none" 
	d="
M167.967896,88.591972 
	C167.963348,81.686836 167.958817,74.781708 167.978638,67.437943 
	C172.370575,67.667656 176.738174,68.335999 181.546478,69.009262 
	C181.705139,70.104668 181.787430,71.649078 181.083557,72.213997 
	C175.317902,76.841553 172.380096,83.299278 168.841400,89.688034 
	C168.214020,89.303383 168.090958,88.947678 167.967896,88.591972 
z"/>
<path fill="#C8CCD0" opacity="1.000000" stroke="none" 
	d="
M165.445160,269.977997 
	C163.260178,269.650208 161.525375,269.328003 159.384628,269.017395 
	C152.940125,269.023956 146.901581,269.018890 140.160324,268.725922 
	C136.638077,268.617737 133.818527,268.797485 130.998978,268.977234 
	C130.254028,268.979370 129.509064,268.981506 128.392151,268.980225 
	C127.236603,268.307526 126.459732,267.630127 125.667786,266.970856 
	C124.519287,266.014801 123.359886,265.071808 122.205132,264.123260 
	C123.528084,263.415833 124.789352,262.279999 126.185226,262.079010 
	C130.908524,261.398895 135.679535,261.050018 140.718918,260.276062 
	C142.386871,259.978729 143.768234,259.979919 146.035034,259.987732 
	C148.743134,259.996674 150.570312,260.082825 152.387619,259.985382 
	C157.592072,259.706329 162.792526,259.352753 167.994553,259.028503 
	C169.056946,259.025604 170.119354,259.022705 171.579407,259.023804 
	C173.599228,259.684937 175.170212,260.681244 176.853226,260.935272 
	C181.807526,261.682983 186.806259,262.136353 191.787598,262.704956 
	C191.938919,263.399109 192.090240,264.093231 192.241562,264.787384 
	C190.976898,265.526520 189.790482,266.668060 188.433395,266.931976 
	C183.712097,267.850067 178.931641,268.463959 174.075790,269.583435 
	C171.283707,269.976746 168.589508,269.980164 165.445160,269.977997 
M143.268433,262.404877 
	C141.847992,262.932953 140.427536,263.461029 138.662582,264.117188 
	C144.375687,268.546265 171.501480,268.012878 173.777786,263.552185 
	C163.920609,260.865143 153.967133,262.289185 143.268433,262.404877 
z"/>
<path fill="#D6D9DB" opacity="1.000000" stroke="none" 
	d="
M167.996719,258.767456 
	C162.792526,259.352753 157.592072,259.706329 152.387619,259.985382 
	C150.570312,260.082825 148.743134,259.996674 146.449585,259.983032 
	C145.984528,259.531647 145.990372,259.091644 145.998108,258.321106 
	C153.021469,257.990906 160.042938,257.991211 167.532196,257.987946 
	C167.999619,258.158417 167.999252,258.332428 167.996719,258.767456 
z"/>
<path fill="#D6D9DB" opacity="1.000000" stroke="none" 
	d="
M131.269684,269.268677 
	C133.818527,268.797485 136.638077,268.617737 139.728424,268.729126 
	C137.179596,269.200226 134.359985,269.380188 131.269684,269.268677 
z"/>
<path fill="#F4F9FB" opacity="1.000000" stroke="none" 
	d="
M167.556168,88.569023 
	C168.090958,88.947678 168.214020,89.303383 168.527512,89.868561 
	C168.276367,92.752960 167.834778,95.427895 166.713623,98.375984 
	C163.402695,99.015312 160.771332,99.381477 157.987061,99.768929 
	C157.987061,102.783638 157.987061,105.417206 158.016602,108.042076 
	C158.046127,108.033379 158.046265,107.971817 157.796539,108.077209 
	C157.347549,108.452789 157.148315,108.722984 156.976654,108.991516 
	C157.004242,108.989838 156.985138,108.938019 156.985138,108.938019 
	C156.532257,108.869339 156.079391,108.800659 155.319504,108.898346 
	C149.018280,108.929962 149.018280,108.929962 147.637955,99.259613 
	C144.179199,97.713661 136.475403,102.016655 137.995789,92.432404 
	C138.044540,91.408348 138.177948,90.814857 138.349304,89.918816 
	C141.398605,89.138481 144.409958,88.660706 147.797974,88.123161 
	C147.947937,85.283974 148.099030,82.423645 148.273010,79.130104 
	C150.013809,78.987755 151.577682,78.859871 153.572525,78.634628 
	C161.214554,78.723877 156.753235,84.771217 159.201370,88.546074 
	C161.420868,88.546074 164.282654,88.546074 167.556168,88.569023 
z"/>
<path fill="#82C833" opacity="1.000000" stroke="none" 
	d="
M176.407654,112.666840 
	C175.505676,108.180603 178.666534,109.069260 181.583954,109.005859 
	C182.258987,110.409195 186.459412,110.373718 183.121185,113.019623 
	C180.808151,112.964714 178.817734,112.860916 176.407654,112.666840 
z"/>
<path fill="#5BBA36" opacity="1.000000" stroke="none" 
	d="
M156.417603,112.031326 
	C156.365250,111.215561 156.716232,110.406754 157.026169,109.267990 
	C156.985138,108.938019 157.004242,108.989838 157.248169,108.937820 
	C157.676819,108.581139 157.861542,108.276474 158.046265,107.971817 
	C158.046265,107.971817 158.046127,108.033379 158.388397,108.050148 
	C161.848389,106.552025 164.966110,105.037125 168.083847,103.522232 
	C171.758545,103.354904 175.433258,103.187576 179.568069,103.084457 
	C178.222260,103.767044 176.442490,104.789993 174.604279,104.908852 
	C171.857620,105.086433 169.890656,105.184433 168.512390,108.417183 
	C166.272141,113.671768 161.624557,113.703781 156.417603,112.031326 
z"/>
<path fill="#23A7B9" opacity="1.000000" stroke="none" 
	d="
M168.039429,103.090446 
	C164.966110,105.037125 161.848389,106.552025 158.358856,108.058846 
	C157.987061,105.417206 157.987061,102.783638 157.987061,99.768929 
	C160.771332,99.381477 163.402695,99.015312 166.443390,98.619598 
	C167.233475,99.946259 167.614243,101.302467 168.039429,103.090446 
z"/>
<path fill="#BCC0C5" opacity="1.000000" stroke="none" 
	d="
M143.687500,262.270813 
	C153.967133,262.289185 163.920609,260.865143 173.777786,263.552185 
	C171.501480,268.012878 144.375687,268.546265 138.662582,264.117188 
	C140.427536,263.461029 141.847992,262.932953 143.687500,262.270813 
z"/>
<path fill="#23A7B9" opacity="1.000000" stroke="none" 
	d="
M157.796539,108.077209 
	C157.861542,108.276474 157.676819,108.581139 157.220581,108.939491 
	C157.148315,108.722984 157.347549,108.452789 157.796539,108.077209 
z"/>
</svg>